# Blender v3.5.1 OBJ File: 'paper_mesh.blend'
# www.blender.org
v -0.105000 -0.148500 0.000000
v 0.105000 -0.148500 0.000000
v 0.105000 0.148500 -0.000000
v -0.105000 0.148500 -0.000000
v 0.105000 -0.118800 -0.000000
v 0.105000 -0.089100 -0.000000
v 0.105000 -0.059400 -0.000000
v 0.105000 -0.029700 -0.000000
v 0.105000 -0.000000 -0.000000
v 0.105000 0.029700 -0.000000
v 0.105000 0.059400 -0.000000
v 0.105000 0.089100 -0.000000
v 0.105000 0.118800 -0.000000
v -0.084000 -0.148500 0.000000
v -0.063000 -0.148500 0.000000
v -0.042000 -0.148500 0.000000
v -0.021000 -0.148500 0.000000
v -0.000000 -0.148500 0.000000
v 0.021000 -0.148500 0.000000
v 0.042000 -0.148500 0.000000
v 0.063000 -0.148500 0.000000
v 0.084000 -0.148500 0.000000
v -0.084000 -0.118800 -0.000000
v -0.063000 -0.089100 -0.000000
v -0.042000 -0.059400 -0.000000
v -0.021000 -0.029700 -0.000000
v -0.000000 -0.000000 -0.000000
v 0.021000 0.029700 -0.000000
v 0.042000 0.059400 -0.000000
v 0.063000 0.089100 -0.000000
v 0.084000 0.118800 -0.000000
v 0.084000 0.148500 -0.000000
v 0.063000 0.148500 -0.000000
v 0.042000 0.148500 -0.000000
v 0.021000 0.148500 -0.000000
v -0.000000 0.148500 -0.000000
v -0.021000 0.148500 -0.000000
v -0.042000 0.148500 -0.000000
v -0.063000 0.148500 -0.000000
v -0.084000 0.148500 -0.000000
v -0.105000 -0.118800 -0.000000
v -0.105000 -0.089100 -0.000000
v -0.105000 -0.059400 -0.000000
v -0.105000 -0.029700 -0.000000
v -0.105000 -0.000000 -0.000000
v -0.105000 0.029700 -0.000000
v -0.105000 0.059400 -0.000000
v -0.105000 0.089100 -0.000000
v -0.105000 0.118800 -0.000000
v -0.084000 -0.089100 -0.000000
v -0.063000 -0.059400 -0.000000
v -0.084000 -0.059400 -0.000000
v -0.042000 -0.029700 -0.000000
v -0.063000 -0.029700 -0.000000
v -0.084000 -0.029700 -0.000000
v -0.021000 -0.000000 -0.000000
v -0.042000 -0.000000 -0.000000
v -0.063000 -0.000000 -0.000000
v -0.084000 -0.000000 -0.000000
v -0.000000 0.029700 -0.000000
v -0.021000 0.029700 -0.000000
v -0.042000 0.029700 -0.000000
v -0.063000 0.029700 -0.000000
v -0.084000 0.029700 -0.000000
v 0.021000 0.059400 -0.000000
v -0.000000 0.059400 -0.000000
v -0.021000 0.059400 -0.000000
v -0.042000 0.059400 -0.000000
v -0.063000 0.059400 -0.000000
v -0.084000 0.059400 -0.000000
v 0.042000 0.089100 -0.000000
v 0.021000 0.089100 -0.000000
v -0.000000 0.089100 -0.000000
v -0.021000 0.089100 -0.000000
v -0.042000 0.089100 -0.000000
v -0.063000 0.089100 -0.000000
v -0.084000 0.089100 -0.000000
v 0.063000 0.118800 -0.000000
v 0.042000 0.118800 -0.000000
v 0.021000 0.118800 -0.000000
v -0.000000 0.118800 -0.000000
v -0.021000 0.118800 -0.000000
v -0.042000 0.118800 -0.000000
v -0.063000 0.118800 -0.000000
v -0.084000 0.118800 -0.000000
v 0.084000 0.089100 -0.000000
v 0.063000 0.059400 -0.000000
v 0.084000 0.059400 -0.000000
v 0.042000 0.029700 -0.000000
v 0.063000 0.029700 -0.000000
v 0.084000 0.029700 -0.000000
v 0.021000 -0.000000 -0.000000
v 0.042000 -0.000000 -0.000000
v 0.063000 -0.000000 -0.000000
v 0.084000 -0.000000 -0.000000
v -0.000000 -0.029700 -0.000000
v 0.021000 -0.029700 -0.000000
v 0.042000 -0.029700 -0.000000
v 0.063000 -0.029700 -0.000000
v 0.084000 -0.029700 -0.000000
v -0.021000 -0.059400 -0.000000
v -0.000000 -0.059400 -0.000000
v 0.021000 -0.059400 -0.000000
v 0.042000 -0.059400 -0.000000
v 0.063000 -0.059400 -0.000000
v 0.084000 -0.059400 -0.000000
v -0.042000 -0.089100 -0.000000
v -0.021000 -0.089100 -0.000000
v -0.000000 -0.089100 -0.000000
v 0.021000 -0.089100 -0.000000
v 0.042000 -0.089100 -0.000000
v 0.063000 -0.089100 -0.000000
v 0.084000 -0.089100 -0.000000
v -0.063000 -0.118800 -0.000000
v -0.042000 -0.118800 -0.000000
v -0.021000 -0.118800 -0.000000
v -0.000000 -0.118800 -0.000000
v 0.021000 -0.118800 -0.000000
v 0.042000 -0.118800 -0.000000
v 0.063000 -0.118800 -0.000000
v 0.084000 -0.118800 -0.000000
s off
f 50 23 114
f 31 13 32
f 1 14 41
f 107 25 51
f 24 107 51
f 96 27 56
f 26 96 56
f 89 29 65
f 28 89 65
f 86 31 78
f 30 86 78
f 23 50 41
f 50 42 41
f 24 51 50
f 51 52 50
f 52 43 50
f 55 52 51
f 25 53 51
f 53 54 51
f 54 55 51
f 58 54 53
f 52 55 43
f 55 44 43
f 26 56 53
f 56 57 53
f 57 58 53
f 45 44 55
f 54 58 55
f 58 59 55
f 59 45 55
f 62 57 56
f 27 60 56
f 60 61 56
f 61 62 56
f 64 59 58
f 57 62 58
f 62 63 58
f 63 64 58
f 67 61 60
f 59 64 45
f 64 46 45
f 28 65 60
f 65 66 60
f 66 67 60
f 69 63 62
f 61 67 62
f 67 68 62
f 68 69 62
f 47 46 64
f 63 69 64
f 69 70 64
f 70 47 64
f 73 66 65
f 29 71 65
f 71 72 65
f 72 73 65
f 75 68 67
f 66 73 67
f 73 74 67
f 74 75 67
f 77 70 69
f 68 75 69
f 75 76 69
f 76 77 69
f 80 72 71
f 70 77 47
f 77 48 47
f 30 78 71
f 78 79 71
f 79 80 71
f 82 74 73
f 72 80 73
f 80 81 73
f 81 82 73
f 84 76 75
f 74 82 75
f 82 83 75
f 83 84 75
f 49 48 77
f 76 84 77
f 84 85 77
f 85 49 77
f 34 79 78
f 31 32 78
f 32 33 78
f 33 34 78
f 36 81 80
f 79 34 80
f 34 35 80
f 35 36 80
f 38 83 82
f 81 36 82
f 36 37 82
f 37 38 82
f 40 85 84
f 83 38 84
f 38 39 84
f 39 40 84
f 11 12 86
f 85 40 49
f 40 4 49
f 14 23 41
f 43 42 50
f 30 71 87
f 71 29 87
f 28 60 92
f 60 27 92
f 26 53 101
f 53 25 101
f 24 50 114
f 31 86 13
f 86 12 13
f 30 87 86
f 87 88 86
f 88 11 86
f 91 88 87
f 29 89 87
f 89 90 87
f 90 91 87
f 94 90 89
f 88 91 11
f 91 10 11
f 28 92 89
f 92 93 89
f 93 94 89
f 9 10 91
f 90 94 91
f 94 95 91
f 95 9 91
f 98 93 92
f 27 96 92
f 96 97 92
f 97 98 92
f 100 95 94
f 93 98 94
f 98 99 94
f 99 100 94
f 103 97 96
f 95 100 9
f 100 8 9
f 26 101 96
f 101 102 96
f 102 103 96
f 105 99 98
f 97 103 98
f 103 104 98
f 104 105 98
f 7 8 100
f 99 105 100
f 105 106 100
f 106 7 100
f 109 102 101
f 25 107 101
f 107 108 101
f 108 109 101
f 111 104 103
f 102 109 103
f 109 110 103
f 110 111 103
f 113 106 105
f 104 111 105
f 111 112 105
f 112 113 105
f 116 108 107
f 106 113 7
f 113 6 7
f 24 114 107
f 114 115 107
f 115 116 107
f 118 110 109
f 108 116 109
f 116 117 109
f 117 118 109
f 120 112 111
f 110 118 111
f 118 119 111
f 119 120 111
f 5 6 113
f 112 120 113
f 120 121 113
f 121 5 113
f 16 115 114
f 23 14 114
f 14 15 114
f 15 16 114
f 18 117 116
f 115 16 116
f 16 17 116
f 17 18 116
f 20 119 118
f 117 18 118
f 18 19 118
f 19 20 118
f 22 121 120
f 119 20 120
f 20 21 120
f 21 22 120
f 121 22 5
f 22 2 5
f 13 3 32
