# Blender 4.5.4 LTS
# www.blender.org
o a4
v -0.105000 -0.148500 0.000000
v 0.105000 -0.148500 0.000000
v 0.105000 0.148500 -0.000000
v -0.105000 0.148500 -0.000000
v 0.105000 -0.118800 0.000000
v 0.105000 -0.089100 0.000000
v 0.105000 -0.059400 0.000000
v 0.105000 -0.029700 0.000000
v 0.105000 0.000000 0.000000
v 0.105000 0.029700 -0.000000
v 0.105000 0.059400 -0.000000
v 0.105000 0.089100 -0.000000
v 0.105000 0.118800 -0.000000
v -0.084000 -0.148500 0.000000
v -0.063000 -0.148500 0.000000
v -0.042000 -0.148500 0.000000
v -0.021000 -0.148500 0.000000
v 0.000000 -0.148500 0.000000
v 0.021000 -0.148500 0.000000
v 0.042000 -0.148500 0.000000
v 0.063000 -0.148500 0.000000
v 0.084000 -0.148500 0.000000
v -0.000000 0.000000 -0.000000
v 0.084000 0.148500 -0.000000
v 0.063000 0.148500 -0.000000
v 0.042000 0.148500 -0.000000
v 0.021000 0.148500 -0.000000
v 0.000000 0.148500 -0.000000
v -0.021000 0.148500 -0.000000
v -0.042000 0.148500 -0.000000
v -0.063000 0.148500 -0.000000
v -0.084000 0.148500 -0.000000
v -0.105000 -0.118800 0.000000
v -0.105000 -0.089100 0.000000
v -0.105000 -0.059400 0.000000
v -0.105000 -0.029700 0.000000
v -0.105000 0.000000 0.000000
v -0.105000 0.029700 -0.000000
v -0.105000 0.059400 -0.000000
v -0.105000 0.089100 -0.000000
v -0.105000 0.118800 -0.000000
v -0.105000 -0.133650 0.000000
v -0.094500 -0.148500 0.000000
v -0.105000 -0.103950 0.000000
v -0.105000 -0.044550 0.000000
v -0.105000 -0.014850 0.000000
v -0.105000 0.014850 -0.000000
v -0.105000 0.044550 -0.000000
v -0.105000 0.074250 -0.000000
v -0.105000 0.103950 -0.000000
v 0.073500 0.148500 -0.000000
v 0.052500 0.148500 -0.000000
v 0.031500 0.148500 -0.000000
v 0.010500 0.148500 -0.000000
v -0.010500 0.148500 -0.000000
v -0.031500 0.148500 -0.000000
v -0.052500 0.148500 -0.000000
v -0.073500 0.148500 -0.000000
v 0.105000 0.074250 -0.000000
v -0.094500 0.148500 -0.000000
v -0.105000 0.133650 -0.000000
v -0.105000 -0.074250 0.000000
v 0.105000 0.103950 -0.000000
v 0.105000 0.044550 -0.000000
v 0.105000 0.014850 -0.000000
v 0.105000 -0.014850 0.000000
v 0.105000 -0.044550 0.000000
v 0.105000 -0.074250 0.000000
v 0.105000 -0.103950 0.000000
v -0.073500 -0.148500 0.000000
v -0.052500 -0.148500 0.000000
v -0.031500 -0.148500 0.000000
v -0.010500 -0.148500 0.000000
v 0.010500 -0.148500 0.000000
v 0.031500 -0.148500 0.000000
v 0.052500 -0.148500 0.000000
v 0.073500 -0.148500 0.000000
v 0.094500 -0.148500 0.000000
v 0.105000 -0.133650 0.000000
v 0.105000 0.133650 -0.000000
v 0.094500 0.148500 -0.000000
v -0.105000 -0.126225 0.000000
v -0.089250 -0.148500 0.000000
v -0.105000 -0.096525 0.000000
v -0.105000 -0.037125 0.000000
v -0.105000 -0.007425 0.000000
v -0.105000 0.022275 -0.000000
v -0.105000 0.051975 -0.000000
v -0.105000 0.081675 -0.000000
v -0.105000 0.111375 -0.000000
v 0.068250 0.148500 -0.000000
v 0.047250 0.148500 -0.000000
v 0.026250 0.148500 -0.000000
v 0.005250 0.148500 -0.000000
v -0.015750 0.148500 -0.000000
v -0.036750 0.148500 -0.000000
v -0.057750 0.148500 -0.000000
v -0.078750 0.148500 -0.000000
v 0.105000 0.081675 -0.000000
v -0.089250 0.148500 -0.000000
v -0.105000 0.126225 -0.000000
v -0.105000 -0.066825 0.000000
v 0.105000 0.111375 -0.000000
v 0.105000 0.051975 -0.000000
v 0.105000 0.022275 -0.000000
v 0.105000 -0.007425 0.000000
v 0.105000 -0.037125 0.000000
v 0.105000 -0.066825 0.000000
v 0.105000 -0.096525 0.000000
v -0.068250 -0.148500 0.000000
v -0.047250 -0.148500 0.000000
v -0.026250 -0.148500 0.000000
v -0.005250 -0.148500 0.000000
v 0.015750 -0.148500 0.000000
v 0.036750 -0.148500 0.000000
v 0.057750 -0.148500 0.000000
v 0.078750 -0.148500 0.000000
v 0.089250 -0.148500 0.000000
v 0.105000 -0.126225 0.000000
v 0.105000 0.126225 -0.000000
v 0.089250 0.148500 -0.000000
v -0.105000 -0.141075 0.000000
v -0.099750 -0.148500 0.000000
v -0.105000 -0.111375 0.000000
v -0.105000 -0.051975 0.000000
v -0.105000 -0.022275 0.000000
v -0.105000 0.007425 -0.000000
v -0.105000 0.037125 -0.000000
v -0.105000 0.066825 -0.000000
v -0.105000 0.096525 -0.000000
v 0.078750 0.148500 -0.000000
v 0.057750 0.148500 -0.000000
v 0.036750 0.148500 -0.000000
v 0.015750 0.148500 -0.000000
v -0.005250 0.148500 -0.000000
v -0.026250 0.148500 -0.000000
v -0.047250 0.148500 -0.000000
v -0.068250 0.148500 -0.000000
v 0.105000 0.066825 -0.000000
v -0.099750 0.148500 -0.000000
v -0.105000 0.141075 -0.000000
v -0.105000 -0.081675 0.000000
v 0.105000 0.096525 -0.000000
v 0.105000 0.037125 -0.000000
v 0.105000 0.007425 -0.000000
v 0.105000 -0.022275 0.000000
v 0.105000 -0.051975 0.000000
v 0.105000 -0.081675 0.000000
v 0.105000 -0.111375 0.000000
v -0.078750 -0.148500 0.000000
v -0.057750 -0.148500 0.000000
v -0.036750 -0.148500 0.000000
v -0.015750 -0.148500 0.000000
v 0.005250 -0.148500 0.000000
v 0.026250 -0.148500 0.000000
v 0.047250 -0.148500 0.000000
v 0.068250 -0.148500 0.000000
v 0.099750 -0.148500 0.000000
v 0.105000 -0.141075 0.000000
v 0.105000 0.141075 -0.000000
v 0.099750 0.148500 -0.000000
vn -0.0000 -0.0000 1.0000
s 0
f 1//1 123//1 122//1
f 37//1 86//1 23//1
f 39//1 88//1 23//1
f 41//1 90//1 23//1
f 24//1 131//1 23//1
f 25//1 132//1 23//1
f 26//1 133//1 23//1
f 27//1 134//1 23//1
f 28//1 135//1 23//1
f 29//1 136//1 23//1
f 30//1 137//1 23//1
f 31//1 138//1 23//1
f 11//1 139//1 23//1
f 32//1 100//1 23//1
f 35//1 102//1 23//1
f 9//1 145//1 23//1
f 7//1 147//1 23//1
f 5//1 149//1 23//1
f 14//1 150//1 23//1
f 15//1 151//1 23//1
f 16//1 152//1 23//1
f 17//1 153//1 23//1
f 18//1 154//1 23//1
f 19//1 155//1 23//1
f 20//1 156//1 23//1
f 21//1 157//1 23//1
f 22//1 118//1 23//1
f 13//1 120//1 23//1
f 80//1 160//1 23//1
f 78//1 158//1 23//1
f 77//1 117//1 23//1
f 76//1 116//1 23//1
f 75//1 115//1 23//1
f 74//1 114//1 23//1
f 73//1 113//1 23//1
f 72//1 112//1 23//1
f 71//1 111//1 23//1
f 70//1 110//1 23//1
f 69//1 109//1 23//1
f 67//1 107//1 23//1
f 65//1 105//1 23//1
f 62//1 142//1 23//1
f 60//1 140//1 23//1
f 59//1 99//1 23//1
f 58//1 98//1 23//1
f 57//1 97//1 23//1
f 56//1 96//1 23//1
f 55//1 95//1 23//1
f 54//1 94//1 23//1
f 53//1 93//1 23//1
f 52//1 92//1 23//1
f 51//1 91//1 23//1
f 50//1 130//1 23//1
f 48//1 128//1 23//1
f 46//1 126//1 23//1
f 42//1 23//1 82//1
f 43//1 83//1 23//1
f 83//1 14//1 23//1
f 82//1 23//1 33//1
f 23//1 84//1 44//1
f 23//1 34//1 84//1
f 23//1 124//1 33//1
f 23//1 44//1 124//1
f 23//1 85//1 45//1
f 23//1 36//1 85//1
f 23//1 125//1 35//1
f 23//1 45//1 125//1
f 126//1 36//1 23//1
f 23//1 87//1 47//1
f 23//1 38//1 87//1
f 23//1 127//1 37//1
f 23//1 47//1 127//1
f 128//1 38//1 23//1
f 23//1 89//1 49//1
f 23//1 40//1 89//1
f 23//1 129//1 39//1
f 23//1 49//1 129//1
f 130//1 40//1 23//1
f 91//1 25//1 23//1
f 92//1 26//1 23//1
f 93//1 27//1 23//1
f 94//1 28//1 23//1
f 95//1 29//1 23//1
f 96//1 30//1 23//1
f 97//1 31//1 23//1
f 98//1 32//1 23//1
f 99//1 12//1 23//1
f 23//1 141//1 61//1
f 23//1 140//1 141//1
f 140//1 4//1 141//1
f 23//1 101//1 41//1
f 23//1 61//1 101//1
f 142//1 34//1 23//1
f 23//1 143//1 63//1
f 23//1 12//1 143//1
f 23//1 103//1 13//1
f 23//1 63//1 103//1
f 23//1 144//1 64//1
f 23//1 10//1 144//1
f 23//1 104//1 11//1
f 23//1 64//1 104//1
f 105//1 10//1 23//1
f 23//1 146//1 66//1
f 23//1 8//1 146//1
f 23//1 106//1 9//1
f 23//1 66//1 106//1
f 107//1 8//1 23//1
f 23//1 148//1 68//1
f 23//1 6//1 148//1
f 23//1 108//1 7//1
f 23//1 68//1 108//1
f 109//1 6//1 23//1
f 110//1 15//1 23//1
f 111//1 16//1 23//1
f 112//1 17//1 23//1
f 113//1 18//1 23//1
f 114//1 19//1 23//1
f 115//1 20//1 23//1
f 116//1 21//1 23//1
f 117//1 22//1 23//1
f 23//1 159//1 79//1
f 23//1 158//1 159//1
f 158//1 2//1 159//1
f 23//1 119//1 5//1
f 23//1 79//1 119//1
f 23//1 161//1 81//1
f 23//1 160//1 161//1
f 160//1 3//1 161//1
f 23//1 121//1 24//1
f 23//1 81//1 121//1
f 120//1 80//1 23//1
f 118//1 78//1 23//1
f 157//1 77//1 23//1
f 156//1 76//1 23//1
f 155//1 75//1 23//1
f 154//1 74//1 23//1
f 153//1 73//1 23//1
f 152//1 72//1 23//1
f 151//1 71//1 23//1
f 150//1 70//1 23//1
f 149//1 69//1 23//1
f 147//1 67//1 23//1
f 145//1 65//1 23//1
f 102//1 62//1 23//1
f 100//1 60//1 23//1
f 139//1 59//1 23//1
f 138//1 58//1 23//1
f 137//1 57//1 23//1
f 136//1 56//1 23//1
f 135//1 55//1 23//1
f 134//1 54//1 23//1
f 133//1 53//1 23//1
f 132//1 52//1 23//1
f 131//1 51//1 23//1
f 90//1 50//1 23//1
f 88//1 48//1 23//1
f 86//1 46//1 23//1
f 122//1 23//1 42//1
f 122//1 123//1 23//1
f 123//1 43//1 23//1
